<svg xmlns="http://www.w3.org/2000/svg" width="960" height="540" viewBox="0 0 960 540">
  <rect width="960" height="540" fill="#fff7ed" rx="36"/>
  <rect x="96" y="60" width="768" height="420" rx="28" fill="#ffffff" stroke="#fdba74" stroke-width="4"/>
  <rect x="118" y="84" width="724" height="80" rx="22" fill="#ffedd5"/>
  <text x="144" y="136" fill="#ea580c" font-size="28" font-family="Arial, sans-serif" font-weight="700">주인공 샘플 캐릭터</text>
  <circle cx="268" cy="258" r="74" fill="#fde68a" opacity="0.45"/>
  <circle cx="268" cy="236" r="42" fill="#ffffff" stroke="#fdba74" stroke-width="6"/>
  <path d="M208 348c22-36 44-54 60-54 16 0 38 18 60 54v76H208z" fill="#fb7185" opacity="0.92"/>
  <rect x="400" y="206" width="378" height="20" rx="10" fill="#fed7aa"/>
  <rect x="400" y="250" width="320" height="20" rx="10" fill="#ffedd5"/>
  <rect x="400" y="294" width="290" height="20" rx="10" fill="#ffedd5"/>
  <rect x="400" y="356" width="208" height="54" rx="18" fill="#fb7185"/>
  <text x="432" y="390" fill="#ffffff" font-size="20" font-family="Arial, sans-serif" font-weight="700">MAIN HERO</text>
</svg>
