<svg xmlns="http://www.w3.org/2000/svg" width="960" height="540" viewBox="0 0 960 540">
  <defs>
    <linearGradient id="bg" x1="0" x2="1" y1="0" y2="1">
      <stop offset="0%" stop-color="#f5f3ff"/>
      <stop offset="100%" stop-color="#ede9fe"/>
    </linearGradient>
  </defs>
  <rect width="960" height="540" fill="url(#bg)" rx="36"/>
  <circle cx="748" cy="118" r="68" fill="#8b5cf6" opacity="0.2"/>
  <circle cx="184" cy="138" r="42" fill="#c4b5fd"/>
  <rect x="72" y="70" width="816" height="400" rx="28" fill="#ffffff" stroke="#ddd6fe" stroke-width="4"/>
  <rect x="110" y="106" width="228" height="300" rx="24" fill="#f5f3ff"/>
  <circle cx="224" cy="190" r="56" fill="#facc15"/>
  <path d="M180 286c26-42 62-64 108-64s82 22 108 64v74H180z" fill="#8b5cf6" opacity="0.9"/>
  <rect x="388" y="132" width="426" height="24" rx="12" fill="#c4b5fd"/>
  <rect x="388" y="180" width="338" height="20" rx="10" fill="#ddd6fe"/>
  <rect x="388" y="226" width="382" height="20" rx="10" fill="#ddd6fe"/>
  <rect x="388" y="272" width="286" height="20" rx="10" fill="#ddd6fe"/>
  <rect x="388" y="340" width="160" height="52" rx="18" fill="#8b5cf6"/>
  <text x="110" y="438" fill="#6d28d9" font-size="28" font-family="Arial, sans-serif" font-weight="700">애니메이션풍 샘플</text>
  <text x="388" y="374" fill="#ffffff" font-size="20" font-family="Arial, sans-serif" font-weight="700">COLOR + SHAPE + RHYTHM</text>
</svg>
