<svg xmlns="http://www.w3.org/2000/svg" width="960" height="540" viewBox="0 0 960 540">
  <defs>
    <linearGradient id="bg" x1="0" x2="1" y1="0" y2="1">
      <stop offset="0%" stop-color="#fff1f2"/>
      <stop offset="100%" stop-color="#ffe4e6"/>
    </linearGradient>
  </defs>
  <rect width="960" height="540" fill="url(#bg)" rx="36"/>
  <rect x="72" y="72" width="816" height="396" rx="30" fill="#fff" stroke="#fecdd3" stroke-width="4"/>
  <circle cx="262" cy="236" r="96" fill="#ffe4e6"/>
  <circle cx="262" cy="220" r="54" fill="#ffffff" stroke="#f9a8d4" stroke-width="6"/>
  <path d="M208 314c18-28 39-42 54-42s36 14 54 42v58H208z" fill="#ec4899" opacity="0.82"/>
  <rect x="392" y="132" width="332" height="22" rx="11" fill="#fbcfe8"/>
  <rect x="392" y="178" width="392" height="18" rx="9" fill="#fce7f3"/>
  <rect x="392" y="220" width="362" height="18" rx="9" fill="#fce7f3"/>
  <rect x="392" y="262" width="248" height="18" rx="9" fill="#fce7f3"/>
  <rect x="392" y="322" width="198" height="52" rx="18" fill="#ec4899" opacity="0.92"/>
  <text x="112" y="430" fill="#be185d" font-size="28" font-family="Arial, sans-serif" font-weight="700">미화풍 샘플</text>
  <text x="418" y="355" fill="#ffffff" font-size="20" font-family="Arial, sans-serif" font-weight="700">SOFT GLOW / CLEAN FACE / LIGHT PINK</text>
</svg>
