<svg xmlns="http://www.w3.org/2000/svg" width="960" height="540" viewBox="0 0 960 540">
  <defs>
    <linearGradient id="bg" x1="0" x2="1" y1="0" y2="1">
      <stop offset="0%" stop-color="#eff6ff"/>
      <stop offset="100%" stop-color="#dbeafe"/>
    </linearGradient>
  </defs>
  <rect width="960" height="540" fill="url(#bg)" rx="36"/>
  <rect x="68" y="68" width="824" height="404" rx="28" fill="#ffffff" stroke="#bfdbfe" stroke-width="4"/>
  <rect x="108" y="112" width="256" height="278" rx="24" fill="#0f172a"/>
  <circle cx="236" cy="186" r="46" fill="#ffffff" opacity="0.92"/>
  <path d="M186 292c16-24 33-36 50-36s34 12 50 36v62H186z" fill="#2563eb"/>
  <rect x="404" y="114" width="370" height="26" rx="13" fill="#2563eb" opacity="0.92"/>
  <rect x="404" y="170" width="404" height="20" rx="10" fill="#bfdbfe"/>
  <rect x="404" y="214" width="356" height="20" rx="10" fill="#bfdbfe"/>
  <rect x="404" y="258" width="392" height="20" rx="10" fill="#bfdbfe"/>
  <rect x="404" y="318" width="180" height="54" rx="18" fill="#0f172a"/>
  <text x="108" y="430" fill="#1d4ed8" font-size="28" font-family="Arial, sans-serif" font-weight="700">뉴스 클린 샘플</text>
  <text x="438" y="352" fill="#ffffff" font-size="20" font-family="Arial, sans-serif" font-weight="700">ANCHOR / LOWER THIRD / DATA BOARD</text>
</svg>
