<svg xmlns="http://www.w3.org/2000/svg" width="960" height="540" viewBox="0 0 960 540">
  <defs>
    <linearGradient id="bg" x1="0" x2="1" y1="0" y2="1">
      <stop offset="0%" stop-color="#0f172a"/>
      <stop offset="100%" stop-color="#1e293b"/>
    </linearGradient>
  </defs>
  <rect width="960" height="540" fill="url(#bg)" rx="36"/>
  <rect x="72" y="72" width="816" height="396" rx="28" fill="#111827" stroke="#334155" stroke-width="4"/>
  <circle cx="740" cy="128" r="54" fill="#f59e0b" opacity="0.2"/>
  <rect x="120" y="300" width="220" height="104" rx="18" fill="#1f2937"/>
  <path d="M186 260c18-28 42-42 70-42s52 14 70 42v144H186z" fill="#38bdf8" opacity="0.68"/>
  <rect x="400" y="138" width="346" height="20" rx="10" fill="#64748b"/>
  <rect x="400" y="182" width="394" height="18" rx="9" fill="#334155"/>
  <rect x="400" y="224" width="320" height="18" rx="9" fill="#334155"/>
  <rect x="400" y="266" width="364" height="18" rx="9" fill="#334155"/>
  <rect x="400" y="332" width="204" height="52" rx="18" fill="#38bdf8" opacity="0.9"/>
  <text x="116" y="434" fill="#e2e8f0" font-size="28" font-family="Arial, sans-serif" font-weight="700">시네마틱 나이트</text>
  <text x="432" y="365" fill="#082f49" font-size="20" font-family="Arial, sans-serif" font-weight="700">NIGHT / CONTRAST / LONELY GLOW</text>
</svg>
